<?xml version="1.0" encoding="UTF-8" standalone="no"?>
<svg
   xmlns:dc="http://purl.org/dc/elements/1.1/"
   xmlns:cc="http://creativecommons.org/ns#"
   xmlns:rdf="http://www.w3.org/1999/02/22-rdf-syntax-ns#"
   xmlns:svg="http://www.w3.org/2000/svg"
   xmlns="http://www.w3.org/2000/svg"
   xmlns:sodipodi="http://sodipodi.sourceforge.net/DTD/sodipodi-0.dtd"
   xmlns:inkscape="http://www.inkscape.org/namespaces/inkscape"
   width="78"
   height="126.414"
   viewBox="0 0 78 126.414"
   version="1.1"
   id="svg8"
   sodipodi:docname="nps-guide-dial3.svg"
   inkscape:version="0.92.1 unknown">
  <metadata
     id="metadata14">
    <rdf:RDF>
      <cc:Work
         rdf:about="">
        <dc:format>image/svg+xml</dc:format>
        <dc:type
           rdf:resource="http://purl.org/dc/dcmitype/StillImage" />
        <dc:title></dc:title>
      </cc:Work>
    </rdf:RDF>
  </metadata>
  <defs
     id="defs12" />
  <sodipodi:namedview
     pagecolor="#ffffff"
     bordercolor="#666666"
     borderopacity="1"
     objecttolerance="10"
     gridtolerance="10"
     guidetolerance="10"
     inkscape:pageopacity="0"
     inkscape:pageshadow="2"
     inkscape:window-width="1243"
     inkscape:window-height="663"
     id="namedview10"
     showgrid="false"
     inkscape:zoom="8.2807017"
     inkscape:cx="21.873655"
     inkscape:cy="18.121973"
     inkscape:window-x="451"
     inkscape:window-y="192"
     inkscape:window-maximized="0"
     inkscape:current-layer="svg8" />
  <g
     id="g6"
     transform="matrix(0.89655172,0,0,0.89655172,0,0.08634015)"
     style="fill-rule:evenodd">
    <path
       d="M 43.5,114 C 67.524387,114 87,94.524387 87,70.5 87,46.475613 67.524387,27 43.5,27 19.475613,27 0,46.475613 0,70.5 0,94.524387 19.475613,114 43.5,114 Z"
       id="path2"
       inkscape:connector-curvature="0" />
    <path
       d="m 42.45949,0.74151667 c 0.485556,-0.99147827 1.275531,-0.98589558 1.758353,0 L 58.493745,29.89214 c 0.485556,0.991478 -0.01199,1.79523 -1.126853,1.79523 H 29.31044 c -1.107899,0 -1.609674,-0.809335 -1.126852,-1.79523 z"
       transform="matrix(-1,0,0,1,86.68,0)"
       id="path4"
       inkscape:connector-curvature="0" />
  </g>
</svg>
